<?xml version="1.0" encoding="UTF-8"?>
<svg version="1.1" xmlns="http://www.w3.org/2000/svg" width="493" height="199">
<path d="M0 0 C1.07707718 0.37533371 2.15415436 0.75066742 3.26387024 1.13737488 C6.79400981 2.37128455 10.31679055 3.62492208 13.83984375 4.87890625 C16.31875355 5.74973061 18.79808924 6.61934347 21.27783203 7.48779297 C27.58779518 9.7004783 33.89098181 11.93189492 40.19232178 14.16900635 C43.54878116 15.36028457 46.90620196 16.54879402 50.26416016 17.73583984 C66.44794304 23.4570894 66.44794304 23.4570894 73.96728516 26.13964844 C84.40143463 29.8582354 94.85557649 33.50670788 105.34375 37.0703125 C107.60178178 37.84081746 109.85975762 38.61148637 112.11767578 39.38232422 C116.4096226 40.84728544 120.70671318 42.29556875 125.00732422 43.73486328 C126.96083907 44.4007013 128.91413834 45.06717225 130.8671875 45.734375 C131.7400087 46.02123672 132.6128299 46.30809845 133.51210022 46.60365295 C142.83999144 49.82493778 150.87181081 54.63810855 155.77734375 63.44140625 C159.31178835 71.59034479 159.26199589 79.88004155 159.21484375 88.62890625 C159.23415849 89.96941382 159.25433594 91.30990925 159.27539062 92.65039062 C159.2718373 99.73927296 159.22623003 104.76722597 154.77734375 110.44140625 C151.35694087 113.38675317 148.56353112 113.75288777 144.10620117 113.68258667 C139.62922587 113.21894352 135.52231725 111.61852275 131.30859375 110.1015625 C130.29732422 109.74865143 129.28605469 109.39574036 128.24414062 109.03213501 C124.9175869 107.86788541 121.59758521 106.68602466 118.27734375 105.50390625 C115.9281069 104.67773226 113.57849129 103.85263459 111.22851562 103.02856445 C105.21521167 100.91631086 99.20726859 98.7892665 93.20117188 96.65661621 C88.06166865 94.83246638 82.9193638 93.01625885 77.77734375 91.19921875 C72.02073211 89.16467269 66.26561485 87.12619326 60.515625 85.07299805 C49.6347006 81.19230294 38.73151109 77.387247 27.79621887 73.66308784 C23.65833274 72.25164337 19.52384732 70.83025814 15.38930511 69.40905285 C11.36785826 68.02817969 7.34122509 66.66406126 3.30999756 65.31202793 C0.20018329 64.26347464 -2.90109983 63.19017237 -6.00390625 62.12109375 C-7.1225708 61.75187302 -8.24123535 61.38265228 -9.39379883 61.00224304 C-17.00589227 58.34495477 -23.30765165 55.08081361 -27.70385742 48.08398438 C-28.48544617 44.10284714 -28.52775188 40.20909039 -28.5234375 36.16015625 C-28.52772263 35.26905151 -28.53200775 34.37794678 -28.53642273 33.45983887 C-28.54215194 31.58049365 -28.5426767 29.70112627 -28.53833008 27.82177734 C-28.53516695 24.95111238 -28.55865755 22.08147542 -28.58398438 19.2109375 C-28.58625724 17.38151171 -28.58696092 15.55208316 -28.5859375 13.72265625 C-28.59514725 12.867323 -28.60435699 12.01198975 -28.61384583 11.1307373 C-28.57719817 6.39836085 -28.27404576 3.29462411 -25.22265625 -0.55859375 C-17.82280612 -6.87023063 -8.04961696 -2.89876309 0 0 Z " fill="#F9F9F9" transform="translate(34.22265625,16.55859375)"/>
<path d="M0 0 C1.56138005 0.54026515 3.12315587 1.07938771 4.68530273 1.61743164 C7.95057401 2.74674975 11.21089291 3.88910993 14.46826172 5.04101562 C18.705273 6.5379504 22.95326284 8.00055964 27.20535278 9.45402527 C30.53012274 10.59435078 33.84884225 11.75150882 37.16601562 12.91372681 C38.75648742 13.46873519 40.34877353 14.01857289 41.94287109 14.56307983 C44.16753406 15.32586074 46.38305008 16.11091619 48.59765625 16.90234375 C49.25536514 17.12283386 49.91307404 17.34332397 50.5907135 17.57049561 C53.84251385 18.76016481 55.3827436 19.64968095 57.43139648 22.49438477 C57.78403564 23.25936279 58.1366748 24.02434082 58.5 24.8125 C54.82593742 29.55041713 49.89834012 30.73086209 44.421875 32.54296875 C43.40326889 32.89080917 42.38466278 33.2386496 41.33518982 33.59703064 C39.13041946 34.34855002 36.92383249 35.09475628 34.71566772 35.83624268 C30.02165762 37.41247244 25.33627149 39.01360586 20.65031433 40.61358643 C18.22547068 41.44133069 15.8001819 42.26777207 13.37446594 43.09295654 C1.10819581 47.26999093 -11.10545903 51.59097135 -23.3125 55.9375 C-25.22359795 56.61752961 -27.13472987 57.29746378 -29.04589844 57.97729492 C-29.9663797 58.30483261 -30.88686096 58.6323703 -31.8352356 58.96983337 C-34.54728409 59.93297262 -37.2611569 60.89084094 -39.97509766 61.84863281 C-43.88656482 63.23120013 -47.78373233 64.64874981 -51.67724609 66.08105469 C-53.72616575 66.82246249 -55.7751548 67.56367857 -57.82421875 68.3046875 C-58.76022415 68.65588654 -59.69622955 69.00708557 -60.66059875 69.368927 C-67.26339802 71.73396785 -73.66770141 73.39540594 -80.375 70.625 C-83.31858553 68.11429469 -85.22491163 65.76460972 -85.78045654 61.82229614 C-85.89670838 59.39869223 -85.91572751 56.99275695 -85.8984375 54.56640625 C-85.90130768 53.67767319 -85.90417786 52.78894012 -85.90713501 51.87327576 C-85.90917181 49.99811158 -85.90366883 48.12292598 -85.89111328 46.24780273 C-85.87507304 43.38802197 -85.89096504 40.5296585 -85.91015625 37.66992188 C-85.90817338 35.8437469 -85.90432879 34.0175728 -85.8984375 32.19140625 C-85.90451019 31.34123428 -85.91058289 30.49106232 -85.9168396 29.61512756 C-85.84884127 23.83197479 -85.11748191 19.68325874 -81.06674194 15.24055481 C-76.65019328 11.08847278 -72.00832783 9.10999835 -66.3125 7.234375 C-65.02049683 6.7881076 -65.02049683 6.7881076 -63.70239258 6.33282471 C-60.97313846 5.39432677 -58.23692557 4.47835084 -55.5 3.5625 C-53.66357289 2.93371981 -51.82763 2.30352354 -49.9921875 1.671875 C-31.2669268 -4.73911339 -18.95187381 -6.71523893 0 0 Z " fill="#F8F8F8" transform="translate(91.5,123.1875)"/>
<path d="M0 0 C5.22103052 3.17356757 8.32587429 6.74427092 10.5625 12.4375 C12.03533383 20.68536947 10.9290738 26.8251393 6.3125 33.75 C1.63407062 38.56603024 -3.06279567 40.06348984 -9.625 40.1875 C-15.08926436 40.09923729 -19.34189803 39.19698817 -23.50390625 35.390625 C-28.21401019 30.26058408 -30.3623288 25.25753522 -30.1171875 18.1484375 C-29.21721458 11.61786478 -27.03728744 6.43540306 -21.75 2.375 C-15.08091273 -2.14359464 -7.61310027 -2.12168368 0 0 Z M-16.8125 10.9375 C-19.17381066 14.32204528 -20.07354673 16.93074208 -19.8125 21 C-19.04651738 25.25364815 -17.36413779 27.38958593 -13.8125 29.9375 C-9.87118098 31.06359115 -7.79415538 31.35197672 -4 29.75 C-1.17934698 27.4128875 -0.01351772 25.39683642 0.48828125 21.75390625 C0.51291678 17.01567218 0.38888684 13.71056306 -2.8125 9.9375 C-7.70347725 6.51381592 -12.27821899 7.35780447 -16.8125 10.9375 Z " fill="#E6E6E6" transform="translate(296.8125,62.0625)"/>
<path d="M0 0 C4.51605329 2.25802664 6.78032774 4.51423044 9 9 C9.41650391 12.07446289 9.41650391 12.07446289 9.4765625 15.47265625 C9.5075 16.70177734 9.5384375 17.93089844 9.5703125 19.19726562 C9.58835937 20.47279297 9.60640625 21.74832031 9.625 23.0625 C9.67603533 25.59512831 9.73056982 28.1276892 9.7890625 30.66015625 C9.80662598 31.78043213 9.82418945 32.90070801 9.84228516 34.05493164 C9.91752965 37.20932936 9.91752965 37.20932936 11 41 C7.04 41 3.08 41 -1 41 C-1.0093457 40.16750732 -1.01869141 39.33501465 -1.02832031 38.47729492 C-1.07236366 35.38497711 -1.13398775 32.29365054 -1.20751953 29.2019043 C-1.24958649 27.20710869 -1.27137864 25.21191918 -1.29296875 23.21679688 C-1.32519531 21.96318359 -1.35742188 20.70957031 -1.390625 19.41796875 C-1.41157227 18.26063232 -1.43251953 17.1032959 -1.45410156 15.91088867 C-1.74271843 12.91944568 -1.74271843 12.91944568 -3.84277344 11.0559082 C-6.08803906 9.67953913 -6.08803906 9.67953913 -9.125 10.6875 C-12.05637147 11.82331112 -12.05637147 11.82331112 -14 14 C-14.27844932 16.71934335 -14.27844932 16.71934335 -14.1953125 19.8828125 C-14.18886719 21.04941406 -14.18242187 22.21601562 -14.17578125 23.41796875 C-14.15902344 24.64128906 -14.14226562 25.86460938 -14.125 27.125 C-14.11597656 28.35605469 -14.10695313 29.58710937 -14.09765625 30.85546875 C-14.07402548 33.90383815 -14.04108054 36.95182382 -14 40 C-17.63 40 -21.26 40 -25 40 C-25.02464849 34.60653012 -25.04283531 29.21309275 -25.05493164 23.81958008 C-25.05997231 21.98331125 -25.06680477 20.14704646 -25.07543945 18.31079102 C-25.08751672 15.67723599 -25.09323081 13.04373384 -25.09765625 10.41015625 C-25.10281754 9.58411392 -25.10797882 8.75807159 -25.11329651 7.90699768 C-25.11349205 5.93763632 -25.06204152 3.96838386 -25 2 C-24 1 -24 1 -21.93359375 0.90234375 C-20.69802734 0.91974609 -20.69802734 0.91974609 -19.4375 0.9375 C-18.61121094 0.94652344 -17.78492188 0.95554688 -16.93359375 0.96484375 C-16.29550781 0.97644531 -15.65742188 0.98804688 -15 1 C-15 1.66 -15 2.32 -15 3 C-14.195625 2.505 -13.39125 2.01 -12.5625 1.5 C-8.17428334 -0.34767017 -4.69544336 -0.75732957 0 0 Z " fill="#E8E8E8" transform="translate(397,61)"/>
<path d="M0 0 C-0.48578543 3.12290635 -0.9986012 5.99580359 -2 9 C-2.85078125 8.54173828 -2.85078125 8.54173828 -3.71875 8.07421875 C-5.98891754 7.00521863 -8.05776253 6.36869449 -10.5 5.8125 C-11.2528125 5.63332031 -12.005625 5.45414063 -12.78125 5.26953125 C-15.14833379 4.98198058 -16.74544015 5.27751605 -19 6 C-19 6.99 -19 7.98 -19 9 C-15.86502349 10.41579584 -12.92734673 11.21569441 -9.5625 11.8125 C-4.81133542 12.81191025 -2.37964941 14.53585936 1 18 C2.62658475 22.87975425 2.67207072 26.54384678 0.5 31.25 C-3.42924649 35.57217113 -7.27831341 36.73661098 -12.90625 37.28125 C-19.32576664 37.47578081 -24.19210129 36.73957486 -30 34 C-31 33 -31 33 -31.1875 29.625 C-31 26 -31 26 -29 23 C-27.3603125 23.99 -27.3603125 23.99 -25.6875 25 C-20.53132855 27.62899945 -15.66229144 27.37471046 -10 27 C-10 25.68 -10 24.36 -10 23 C-10.85722656 22.85304688 -11.71445312 22.70609375 -12.59765625 22.5546875 C-24.53751753 20.21248247 -24.53751753 20.21248247 -28.87890625 15.87109375 C-31.16432687 12.05675062 -30.97511766 8.23008789 -30 4 C-28.26766695 0.44798938 -25.88681603 -1.53547732 -22.375 -3.375 C-13.78322988 -4.96606854 -7.52509888 -4.54345593 0 0 Z " fill="#E3E3E3" transform="translate(343,65)"/>
<path d="M0 0 C0 3.63 0 7.26 0 11 C-4.29 10.67 -8.58 10.34 -13 10 C-13 23.86 -13 37.72 -13 52 C-16.63 51.67 -20.26 51.34 -24 51 C-24 37.47 -24 23.94 -24 10 C-29.94 10.495 -29.94 10.495 -36 11 C-36 7.7 -36 4.4 -36 1 C-31.19450973 0.85721003 -26.38900832 0.71480303 -21.58349609 0.57275391 C-19.94807629 0.52435717 -18.3126596 0.47585503 -16.67724609 0.42724609 C-14.32910964 0.35747127 -11.98096232 0.28807318 -9.6328125 0.21875 C-8.89942657 0.19687622 -8.16604065 0.17500244 -7.41043091 0.15246582 C-2.22774341 0 -2.22774341 0 0 0 Z " fill="#EBEBEB" transform="translate(264,50)"/>
<path d="M0 0 C3.3 0 6.6 0 10 0 C10 12.87 10 25.74 10 39 C6.7 39 3.4 39 0 39 C0 26.13 0 13.26 0 0 Z " fill="#EFEFEF" transform="translate(352,62)"/>
<path d="M0 0 C3.49890004 2.11391877 4.70578686 3.11736059 6 7 C6.39558481 11.91438046 6.62954419 16.45761674 4.75 21.0625 C1.80732807 24.32045821 -0.05738855 24.89716966 -4.4375 25.375 C-8.58155564 24.93878362 -10.09130272 23.90869728 -13 21 C-14.40053506 18.19892988 -14.2075504 15.81108319 -14.25 12.6875 C-14.27578125 11.55699219 -14.3015625 10.42648438 -14.328125 9.26171875 C-13.9685426 5.68729849 -13.14022123 3.85189674 -11 1 C-7.53984865 -0.73007568 -3.78327445 -0.4835273 0 0 Z M-7.73046875 5.15234375 C-9.47761606 7.69511507 -9.36546347 9.502841 -9.3125 12.5625 C-9.30863281 13.53316406 -9.30476562 14.50382813 -9.30078125 15.50390625 C-9.23989886 18.17172335 -9.23989886 18.17172335 -7 20 C-4 20.41666667 -4 20.41666667 -1 20 C1.6882712 15.96759319 1.55532561 12.73308287 1 8 C-0.04829396 5.39987862 -0.04829396 5.39987862 -2 4 C-5.79161428 3.63048898 -5.79161428 3.63048898 -7.73046875 5.15234375 Z " fill="#CECECE" transform="translate(190,142)"/>
<path d="M0 0 C2.80024429 2.10018321 4.42069399 3.66313997 5.8125 6.875 C6.37148434 13.21015588 6.05316469 17.4388786 3 23 C-0.27753594 25.69226166 -3.90814101 25.29227564 -8 25 C-10.25 24.4375 -10.25 24.4375 -12 23 C-14.64552989 18.18135628 -15.59707545 14.57270424 -15 9 C-12.58074723 0.88645161 -8.14553124 -1.41475016 0 0 Z M-8.8125 6.0625 C-10.55535985 10.37378488 -10.78027711 14.09807456 -9 18.4375 C-8.67 18.953125 -8.34 19.46875 -8 20 C-5.69 20 -3.38 20 -1 20 C1.33991708 16.34387956 1.37437949 13.26792624 1 9 C-0.01042218 6.03490467 -0.01042218 6.03490467 -2 4 C-5.4457896 3.1385526 -6.45529005 3.38015764 -8.8125 6.0625 Z " fill="#D0D0D0" transform="translate(347,142)"/>
<path d="M0 0 C3.08712179 3.39583397 3.46390718 6.64840521 3.296875 11.06640625 C2.8633361 13.89011354 1.75180394 15.77655654 0 18 C-2.70879335 19.35439668 -5.00933268 19.06501451 -8 19 C-8.33 20.98 -8.66 22.96 -9 25 C-10.65 25 -12.3 25 -14 25 C-14 16.75 -14 8.5 -14 0 C-3.88387097 -1.26451613 -3.88387097 -1.26451613 0 0 Z M-6 3 C-6.99 3.66 -7.98 4.32 -9 5 C-9.36362818 7.20725073 -9.36362818 7.20725073 -9.1875 9.625 C-9.16042969 10.44226563 -9.13335937 11.25953125 -9.10546875 12.1015625 C-9.07066406 12.72804687 -9.03585938 13.35453125 -9 14 C-6.60280568 14.67958603 -6.60280568 14.67958603 -4 15 C-1.81668311 13.23863645 -1.81668311 13.23863645 -1.8046875 11.0546875 C-1.82789063 10.33539063 -1.85109375 9.61609375 -1.875 8.875 C-1.91625 7.59625 -1.9575 6.3175 -2 5 C-3.32 4.34 -4.64 3.68 -6 3 Z " fill="#C3C3C3" transform="translate(247,148)"/>
<path d="M0 0 C1.32 0 2.64 0 4 0 C4 8.58 4 17.16 4 26 C0.04 26.33 -3.92 26.66 -8 27 C-12 23 -12 23 -12.56640625 20.37890625 C-12.55978927 15.60806107 -12.53995603 12.82581511 -9.875 8.75 C-7 7 -7 7 -3.6875 7.1875 C-2.800625 7.455625 -1.91375 7.72375 -1 8 C-0.67 5.36 -0.34 2.72 0 0 Z M-5 11 C-6.7089129 12.5787681 -6.7089129 12.5787681 -8 15 C-7.77131906 18.68815293 -7.77131906 18.68815293 -7 22 C-5.15274948 22.69159401 -5.15274948 22.69159401 -3 23 C-2.01 22.34 -1.02 21.68 0 21 C0.36297936 19.02252878 0.36297936 19.02252878 0.1875 16.875 C0.125625 15.59625 0.06375 14.3175 0 13 C-2.475 12.01 -2.475 12.01 -5 11 Z " fill="#D6D6D6" transform="translate(467,140)"/>
<path d="M0 0 C2 2 2 2 2.1953125 5.6953125 C2.182009 7.17200108 2.15814835 8.64862358 2.125 10.125 C2.11597656 10.87910156 2.10695313 11.63320312 2.09765625 12.41015625 C2.0740687 14.27357254 2.03819719 16.13682593 2 18 C0.35 18 -1.3 18 -3 18 C-3 13.38 -3 8.76 -3 4 C-4.98 4.33 -6.96 4.66 -9 5 C-9 9.29 -9 13.58 -9 18 C-10.65 18 -12.3 18 -14 18 C-14 12.06 -14 6.12 -14 0 C-4.0212766 -1.34042553 -4.0212766 -1.34042553 0 0 Z " fill="#BDBDBD" transform="translate(449,148)"/>
<path d="M0 0 C2 2 2 2 2.1953125 5.6953125 C2.182009 7.17200108 2.15814835 8.64862358 2.125 10.125 C2.11597656 10.87910156 2.10695313 11.63320312 2.09765625 12.41015625 C2.0740687 14.27357254 2.03819719 16.13682593 2 18 C0.35 18 -1.3 18 -3 18 C-3 13.38 -3 8.76 -3 4 C-4.98 4.33 -6.96 4.66 -9 5 C-9 9.29 -9 13.58 -9 18 C-10.65 18 -12.3 18 -14 18 C-14 12.06 -14 6.12 -14 0 C-4.0212766 -1.34042553 -4.0212766 -1.34042553 0 0 Z " fill="#BCBCBC" transform="translate(370,148)"/>
<path d="M0 0 C2 2 2 2 2.1953125 5.6953125 C2.182009 7.17200108 2.15814835 8.64862358 2.125 10.125 C2.11597656 10.87910156 2.10695313 11.63320312 2.09765625 12.41015625 C2.0740687 14.27357254 2.03819719 16.13682593 2 18 C0.35 18 -1.3 18 -3 18 C-3 13.38 -3 8.76 -3 4 C-4.98 4.33 -6.96 4.66 -9 5 C-9 9.29 -9 13.58 -9 18 C-10.65 18 -12.3 18 -14 18 C-14 12.06 -14 6.12 -14 0 C-4.0212766 -1.34042553 -4.0212766 -1.34042553 0 0 Z " fill="#BDBDBD" transform="translate(296,148)"/>
<path d="M0 0 C2.04052783 1.56632066 2.87268325 2.57695384 3.6171875 5.05078125 C4.05354363 8.87881461 4.06911062 11.72355752 3.125 15.5 C0.76827994 18.27261184 0.07764102 18.53805103 -3.375 19.125 C-6.5275472 19.23814199 -8.07712529 18.96852029 -11.0625 17.75 C-13.69003191 14.02059986 -13.51788061 11.12713563 -13.46875 6.65625 C-12.93263645 3.61827323 -12.12871725 2.2090462 -10 0 C-6.22941703 -1.25686099 -3.86146303 -0.82745636 0 0 Z M-8 4 C-9.37630292 9.83680873 -9.37630292 9.83680873 -7 15 C-3.70924004 14.62095792 -3.70924004 14.62095792 -1 13 C-0.51998164 8.25222252 -0.51998164 8.25222252 -2.375 4.0625 C-4.69044796 2.54855325 -5.54995646 2.77497823 -8 4 Z " fill="#CDCDCD" transform="translate(266,148)"/>
<path d="M0 0 C3.09104534 3.58960104 3 5.08667467 3 10 C-0.96 10 -4.92 10 -9 10 C-8.34 11.32 -7.68 12.64 -7 14 C-5.906875 13.773125 -4.81375 13.54625 -3.6875 13.3125 C0 13 0 13 1.9375 14.4375 C2.288125 14.953125 2.63875 15.46875 3 16 C0.4837345 18.41561488 -0.92032641 18.98985972 -4.4375 19.4375 C-8 19 -8 19 -10.9375 17.6875 C-13.75921833 14.01071551 -13.5184997 11.18347271 -13.46875 6.65625 C-12.93263645 3.61827323 -12.12871725 2.2090462 -10 0 C-6.17853346 -1.27382218 -3.89335307 -0.97333827 0 0 Z M-7 3 C-7.66 4.32 -8.32 5.64 -9 7 C-6.69 7 -4.38 7 -2 7 C-2.33 5.68 -2.66 4.36 -3 3 C-4.32 3 -5.64 3 -7 3 Z " fill="#DADADA" transform="translate(429,148)"/>
<path d="M0 0 C1.59412284 3.18824568 1.10174735 6.62896662 1.0625 10.125 C1.05798828 10.87910156 1.05347656 11.63320312 1.04882812 12.41015625 C1.03703499 14.27347127 1.01909942 16.13674555 1 18 C-0.32 18 -1.64 18 -3 18 C-3.33 13.71 -3.66 9.42 -4 5 C-5.65 5.33 -7.3 5.66 -9 6 C-9.33 9.96 -9.66 13.92 -10 18 C-11.65 18 -13.3 18 -15 18 C-15 12.06 -15 6.12 -15 0 C-12.69 0 -10.38 0 -8 0 C-5.09660535 -1.45169732 -3.09125158 -0.72348441 0 0 Z " fill="#C0C0C0" transform="translate(214,148)"/>
<path d="M0 0 C1.65 0 3.3 0 5 0 C5 1.65 5 3.3 5 5 C6.32 5 7.64 5 9 5 C9 6.32 9 7.64 9 9 C7.68 9 6.36 9 5 9 C5 12.63 5 16.26 5 20 C6.65 20 8.3 20 10 20 C10 21.32 10 22.64 10 24 C6.6875 24.25 6.6875 24.25 3 24 C0.67320295 21.75781375 0.04523015 20.43179714 -0.29296875 17.203125 C-0.25816406 16.22859375 -0.22335937 15.2540625 -0.1875 14.25 C-0.16042969 13.26515625 -0.13335937 12.2803125 -0.10546875 11.265625 C-0.07066406 10.51796875 -0.03585937 9.7703125 0 9 C-0.66 9 -1.32 9 -2 9 C-2 7.68 -2 6.36 -2 5 C-1.34 5 -0.68 5 0 5 C0 3.35 0 1.7 0 0 Z " fill="#C1C1C1" transform="translate(390,143)"/>
<path d="M0 0 C1.32 0 2.64 0 4 0 C4 1.65 4 3.3 4 5 C5.65 5 7.3 5 9 5 C9 6.32 9 7.64 9 9 C7.35 9 5.7 9 4 9 C4.33 12.3 4.66 15.6 5 19 C6.32 19.33 7.64 19.66 9 20 C9.33 20.99 9.66 21.98 10 23 C9 24 9 24 6.125 24.25 C3 24 3 24 1.31640625 22.87109375 C-0.58672065 20.16605582 -0.29280933 18.07708932 -0.1875 14.8125 C-0.16042969 13.72582031 -0.13335937 12.63914063 -0.10546875 11.51953125 C-0.07066406 10.68808594 -0.03585937 9.85664063 0 9 C-0.99 9 -1.98 9 -3 9 C-3 7.68 -3 6.36 -3 5 C-2.01 5 -1.02 5 0 5 C0 3.35 0 1.7 0 0 Z " fill="#CFCFCF" transform="translate(303,143)"/>
<path d="M0 0 C1.34173403 0.92543709 2.67320159 1.86577405 4 2.8125 C5.11375 3.59560547 5.11375 3.59560547 6.25 4.39453125 C6.8275 4.92433594 7.405 5.45414063 8 6 C8 10.38968456 5.87194899 11.76905739 3 15 C-0.45925163 13.7508258 -3.14693203 12.32472205 -6 10 C-5.49477778 5.62140745 -2.82172778 3.18348776 0 0 Z " fill="#D8D8D8" transform="translate(358,42)"/>
<path d="M0 0 C3.96 0 7.92 0 12 0 C12 1.32 12 2.64 12 4 C10.02 4.66 8.04 5.32 6 6 C5.67 9.96 5.34 13.92 5 18 C3.35 18 1.7 18 0 18 C0 12.06 0 6.12 0 0 Z " fill="#BFBFBF" transform="translate(402,148)"/>
<path d="M0 0 C3.96 0 7.92 0 12 0 C12 3.3 12 6.6 12 10 C8.04 10 4.08 10 0 10 C0 6.7 0 3.4 0 0 Z " fill="#E6E6E6" transform="translate(415,91)"/>
<path d="M0 0 C1.65 0 3.3 0 5 0 C5 5.94 5 11.88 5 18 C3.35 18 1.7 18 0 18 C0 12.06 0 6.12 0 0 Z " fill="#BDBDBD" transform="translate(273,148)"/>
<path d="M0 0 C1.32 0 2.64 0 4 0 C4 0.66 4 1.32 4 2 C4.66 2.33 5.32 2.66 6 3 C5.67 7.95 5.34 12.9 5 18 C3.35 18 1.7 18 0 18 C0 12.06 0 6.12 0 0 Z " fill="#C5C5C5" transform="translate(435,148)"/>
<path d="M0 0 C1.32 0 2.64 0 4 0 C4 0.66 4 1.32 4 2 C4.66 2.33 5.32 2.66 6 3 C5.67 7.95 5.34 12.9 5 18 C3.35 18 1.7 18 0 18 C0 12.06 0 6.12 0 0 Z " fill="#C6C6C6" transform="translate(356,148)"/>
<path d="M0 0 C1.32 0 2.64 0 4 0 C4 0.66 4 1.32 4 2 C4.66 2.33 5.32 2.66 6 3 C5.67 7.95 5.34 12.9 5 18 C3.35 18 1.7 18 0 18 C0 12.06 0 6.12 0 0 Z " fill="#C5C5C5" transform="translate(282,148)"/>
<path d="M0 0 C2.9375 0.375 2.9375 0.375 6 1 C7.59412284 4.18824568 7.10174735 7.62896662 7.0625 11.125 C7.05798828 11.87910156 7.05347656 12.63320312 7.04882812 13.41015625 C7.03703499 15.27347127 7.01909942 17.13674555 7 19 C5.68 19 4.36 19 3 19 C2.67 14.05 2.34 9.1 2 4 C0.68 3.67 -0.64 3.34 -2 3 C-1.34 2.01 -0.68 1.02 0 0 Z " fill="#DEDEDE" transform="translate(208,147)"/>
<path d="M0 0 C0.66 0.66 1.32 1.32 2 2 C3.134375 1.814375 4.26875 1.62875 5.4375 1.4375 C9 1 9 1 10.9375 2.4375 C11.288125 2.953125 11.63875 3.46875 12 4 C9.35674154 6.53752812 8.11659328 6.99195908 4.375 7.25 C1 7 1 7 -1 6 C-0.67 4.02 -0.34 2.04 0 0 Z " fill="#BEBEBE" transform="translate(420,160)"/>
<path d="M0 0 C1.9375 0.1875 1.9375 0.1875 4 1 C6.11103658 3.95545121 6.19785783 6.43855901 6 10 C1.545 9.01 1.545 9.01 -3 8 C-1.68 7.67 -0.36 7.34 1 7 C0.34 5.02 -0.32 3.04 -1 1 C-0.67 0.67 -0.34 0.34 0 0 Z " fill="#CECECE" transform="translate(426,148)"/>
<path d="M0 0 C3.96 0 7.92 0 12 0 C12 1.32 12 2.64 12 4 C8.04 4 4.08 4 0 4 C0 2.68 0 1.36 0 0 Z " fill="#CECECE" transform="translate(375,155)"/>
<path d="M0 0 C3.96 0 7.92 0 12 0 C12 1.32 12 2.64 12 4 C8.04 4 4.08 4 0 4 C0 2.68 0 1.36 0 0 Z " fill="#CECECE" transform="translate(218,155)"/>
<path d="M0 0 C1.65 0.33 3.3 0.66 5 1 C5 2.32 5 3.64 5 5 C1.25 6.125 1.25 6.125 -1 5 C-0.67 3.35 -0.34 1.7 0 0 Z " fill="#A2A2A2" transform="translate(476,161)"/>
<path d="M0 0 C2.0625 0.4375 2.0625 0.4375 4 1 C3.67 2.65 3.34 4.3 3 6 C1.68 5.67 0.36 5.34 -1 5 C-1 1 -1 1 0 0 Z " fill="#ACACAC" transform="translate(316,161)"/>
<path d="M0 0 C1.98 0.495 1.98 0.495 4 1 C4 2.32 4 3.64 4 5 C2.35 5 0.7 5 -1 5 C-0.67 3.35 -0.34 1.7 0 0 Z " fill="#A4A4A4" transform="translate(274,141)"/>
<path d="M0 0 C1.65 0 3.3 0 5 0 C4.67 0.66 4.34 1.32 4 2 C4.99 2.66 5.98 3.32 7 4 C5.02 4.66 3.04 5.32 1 6 C0.67 4.02 0.34 2.04 0 0 Z " fill="#A3A3A3" transform="translate(203,148)"/>
</svg>
